<?xml version="1.0" encoding="utf-8"?>
<!-- Generator: Adobe Illustrator 21.1.0, SVG Export Plug-In . SVG Version: 6.00 Build 0)  -->
<svg version="1.1" id="Laag_1" xmlns="http://www.w3.org/2000/svg" xmlns:xlink="http://www.w3.org/1999/xlink" x="0px" y="0px"
	 viewBox="0 0 74 32" style="enable-background:new 0 0 74 32;" xml:space="preserve">
<style type="text/css">
	.st0{fill:#004B87;}
	.st0{fill:white;}
</style>
<title>icon-vans</title>
<path class="st0" d="M26.8,14.2c0,0-5.6,2.3-8.6,2.3H17c0.2-0.2,0.2-0.5,0.2-0.7c0-0.8-0.2-2.3-0.8-2.8l0,0
	c-0.2-0.2-0.6-0.4-0.9-0.4c1.1-1,2.2-2,3.2-2.9s2-1.9,3.1-2.9c0.2-0.2,0.6-0.4,0.9-0.4h4.2C26.8,6.4,26.8,14.2,26.8,14.2z
	 M15.8,13.4c-0.2-0.2-0.5-0.2-0.7-0.2c-0.6,0.2-2.6,3.2-0.9,3.2h1.6c0.2,0,0.4-0.1,0.5-0.2c0.2-0.2,0.2-0.3,0.2-0.5
	C16.5,15.2,16.2,13.8,15.8,13.4C15.8,13.4,15.8,13.4,15.8,13.4z M24.4,17.4h3.3v-1h-3.3V17.4z M29.6,16.6h3.3v-1h-3.3V16.6z
	 M47.3,17.2h19v-1h-19V17.2z M74.5,21v4.4l-0.1,0.3c0,0.1-0.3,0.7-1,1.4c-0.6,0.6-1.8,1.2-3.4,1.2c-0.1,0-0.1,0-0.2,0h-5.3
	c-0.2,0.9-0.7,1.6-1.3,2.2c-1,1-2.2,1.5-3.6,1.5s-2.7-0.6-3.6-1.5l0,0c-0.6-0.6-1-1.4-1.3-2.2H17c-0.2,0.9-0.7,1.6-1.3,2.2
	c-1,1-2.2,1.5-3.6,1.5s-2.7-0.6-3.6-1.5l0,0c-0.6-0.6-1-1.4-1.3-2.2H5.7c-1.1,0-2.9,0-3.6-0.2l-0.3-0.1c-1-0.2-1.7-1-1.8-2v-2.4
	c0-0.7,0.3-1.4,0.9-1.8c-0.1-2.1,0-2.4,0.6-4.4c0.5-1.9,9.3-4.9,10.3-5.2c1.4-0.8,3.5-2.8,5.6-4.7c2-1.8,3.8-3.6,5.1-4.4
	c2.2-1.4,5-3,8.7-3.2h39.3c1.4,0,2.2,1.7,2.8,5.4c0.2,1.9,0.4,7.8,0.5,11.4c0,1.1,0.1,2,0.1,2.3s0.1,0.7,0.3,1.2
	c0.2,0.3,0.3,0.6,0.3,0.6S74.5,21,74.5,21z M15.2,26.9c0-1.8-1.4-3.1-3.1-3.1c-1.7,0-3.1,1.4-3.1,3.1s1.4,3.1,3.1,3.1
	C13.8,30,15.2,28.6,15.2,26.9z M62.7,26.9c0-1.8-1.4-3.1-3.1-3.1s-3.1,1.4-3.1,3.1c0,1.8,1.4,3.1,3.1,3.1
	C61.3,30,62.7,28.6,62.7,26.9z M73,21.4c-0.1-0.2-0.2-0.3-0.3-0.6c-0.2-0.6-0.4-1.2-0.4-1.7c0-0.1,0-0.2,0-0.2c-1-0.4-1.9-1.2-1.9-2
	V8.4H72c-0.1-1.2-0.2-2.2-0.2-2.8c-0.6-4-1.4-4.2-1.4-4.2H31.2c-2.6,0.2-5,1-8,3c-1.1,0.7-3,2.5-4.9,4.2c-2.2,2-4.4,4.1-5.9,5
	l-0.1,0.1c-1.1,0.3-3.4,1.1-5.4,2c0,1-0.1,1.8-0.2,1.9c-0.4,0.4-2.7,1.7-4.4,2.6c-0.1,0.6,0,1.1,0,2.2v0.5l-0.5,0.2
	c-0.2,0.1-0.5,0.4-0.4,0.6v2.4c0,0.3,0.2,0.6,0.6,0.7l0.2,0.1c0.5,0.1,2,0.1,3.4,0.1H6v-0.2c0-1.7,0.6-3.1,1.8-4.2l0,0l0,0
	c1.1-1.1,2.6-1.8,4.2-1.8l0,0c1.7,0,3.2,0.6,4.2,1.8c1.1,1.1,1.8,2.6,1.8,4.2v0.2h35.4v-0.2c0-1.7,0.6-3.1,1.8-4.2l0,0l0,0
	c1.1-1.1,2.6-1.8,4.2-1.8l0,0c1.7,0,3.2,0.6,4.2,1.8c1.1,1.1,1.8,2.6,1.8,4.2v0.2h4.2c1,0.1,2-0.2,2.6-0.9c0.3-0.3,0.6-0.6,0.6-0.7
	v-3.8L73,21.4z M12.1,25.6c-0.7,0-1.3,0.6-1.3,1.3s0.6,1.3,1.3,1.3s1.3-0.6,1.3-1.3C13.4,26.2,12.8,25.6,12.1,25.6z M59.6,25.6
	c-0.7,0-1.3,0.6-1.3,1.3s0.6,1.3,1.3,1.3c0.7,0,1.3-0.6,1.3-1.3S60.3,25.6,59.6,25.6z"/>
</svg>
